# xmcd CD database file
#
# Track frame offsets:
#	150
#	20322
#	37734
#	52371
#	72310
#	88498
#	107608
#	125204
#	144446
#	161723
#	179868
#	194046
#	212745
#	231027
#	247668
#	261301
#	279439
#	297505
#
# Disc length: 4191 seconds
#
# Revision: 2
# Processed by: cddbd v1.5.2PL0 Copyright (c) Steve Scherf et al.
# Submitted via: CDex 1.51
#
DISCID=1f105d12
DTITLE=Various Artist - MRH-130
DYEAR=1900
DGENRE=Blues
TTITLE0=Ed Sheeran - Photograph
TTITLE1=Little Mix - Black Magic
TTITLE2=OMI - Cheerleader (felix jaehn remix)
TTITLE3=James Bay - Let It Go
TTITLE4=Taylor Swift Ft Kendrick Lamar - Bad Blood
TTITLE5=Olly Murs - Beautiful Me
TTITLE6=Martin Garrix Ft Usher - Don't Look Down
TTITLE7=Kelly Clarkson - Invincible
TTITLE8=Charles Hamilton Ft Rita Ora - New York Raining
TTITLE9=Fifth Harmony Ft Kid Ink - Worth It
TTITLE10=Blonde Ft Alex Newell - All Cried Out
TTITLE11=Tinie Tempah Ft Jess Glynne - Not Letting Go
TTITLE12=Rixton - We Want The Same Thing
TTITLE13=Rita Ora - Poison
TTITLE14=Britney Spears and Iggy Azalea - Pretty Girls
TTITLE15=Maroon 5 - This Summer's Gonna Hurt
TTITLE16=The Weeknd - The Hills
TTITLE17=Lawson - Roads
EXTD=
EXTT0=
EXTT1=
EXTT2=
EXTT3=
EXTT4=
EXTT5=
EXTT6=
EXTT7=
EXTT8=
EXTT9=
EXTT10=
EXTT11=
EXTT12=
EXTT13=
EXTT14=
EXTT15=
EXTT16=
EXTT17=
PLAYORDER=
